<?xml version="1.0" standalone="no"?>
<svg xmlns:xlink="http://www.w3.org/1999/xlink" id="wave" style="transform:rotate(180deg); transition: 0.3s" viewBox="0 0 1440 170" version="1.1" xmlns="http://www.w3.org/2000/svg"><defs><linearGradient id="sw-gradient-0" x1="0" x2="0" y1="1" y2="0"><stop stop-color="rgba(39, 129, 188, 1)" offset="0%"/><stop stop-color="rgba(146.938, 212.21, 255, 1)" offset="100%"/></linearGradient></defs><path style="transform:translate(0, 0px); opacity:1" fill="url(#sw-gradient-0)" d="M0,34L24,42.5C48,51,96,68,144,62.3C192,57,240,28,288,17C336,6,384,11,432,25.5C480,40,528,62,576,62.3C624,62,672,40,720,39.7C768,40,816,62,864,82.2C912,102,960,119,1008,110.5C1056,102,1104,68,1152,68C1200,68,1248,102,1296,104.8C1344,108,1392,79,1440,73.7C1488,68,1536,85,1584,87.8C1632,91,1680,79,1728,82.2C1776,85,1824,102,1872,93.5C1920,85,1968,51,2016,39.7C2064,28,2112,40,2160,56.7C2208,74,2256,96,2304,99.2C2352,102,2400,85,2448,82.2C2496,79,2544,91,2592,90.7C2640,91,2688,79,2736,70.8C2784,62,2832,57,2880,48.2C2928,40,2976,28,3024,28.3C3072,28,3120,40,3168,45.3C3216,51,3264,51,3312,62.3C3360,74,3408,96,3432,107.7L3456,119L3456,170L3432,170C3408,170,3360,170,3312,170C3264,170,3216,170,3168,170C3120,170,3072,170,3024,170C2976,170,2928,170,2880,170C2832,170,2784,170,2736,170C2688,170,2640,170,2592,170C2544,170,2496,170,2448,170C2400,170,2352,170,2304,170C2256,170,2208,170,2160,170C2112,170,2064,170,2016,170C1968,170,1920,170,1872,170C1824,170,1776,170,1728,170C1680,170,1632,170,1584,170C1536,170,1488,170,1440,170C1392,170,1344,170,1296,170C1248,170,1200,170,1152,170C1104,170,1056,170,1008,170C960,170,912,170,864,170C816,170,768,170,720,170C672,170,624,170,576,170C528,170,480,170,432,170C384,170,336,170,288,170C240,170,192,170,144,170C96,170,48,170,24,170L0,170Z"/></svg>